<?xml version="1.0" encoding="UTF-8"?>
<!DOCTYPE svg PUBLIC "-//W3C//DTD SVG 1.1//EN" "http://www.w3.org/Graphics/SVG/1.1/DTD/svg11.dtd">
<!-- Creator: CorelDRAW X7 -->
<svg xmlns="http://www.w3.org/2000/svg" xml:space="preserve" width="185mm" height="75mm" version="1.1" style="shape-rendering:geometricPrecision; text-rendering:geometricPrecision; image-rendering:optimizeQuality; fill-rule:evenodd; clip-rule:evenodd"
viewBox="0 0 18500 7500"
 xmlns:xlink="http://www.w3.org/1999/xlink">
 <defs>
  <style type="text/css">
   <![CDATA[
    .fil1 {fill:#3769B0}
    .fil0 {fill:#3769B0;fill-rule:nonzero}
   ]]>
  </style>
 </defs>
 <g id="Слой_x0020_1">
  <metadata id="CorelCorpID_0Corel-Layer"/>
  <g id="_2050463451024">
   <path class="fil0" d="M1395 5159c0,56 -7,107 -21,154 -15,47 -37,88 -66,123 -29,35 -65,62 -109,81 -43,20 -93,30 -151,30 -61,0 -114,-9 -158,-28 -45,-19 -82,-45 -110,-79 -29,-34 -51,-74 -65,-121 -13,-47 -20,-100 -20,-157 0,-54 6,-105 20,-153 13,-47 34,-89 63,-124 28,-36 65,-64 109,-85 45,-20 99,-30 161,-30 63,0 117,10 161,31 44,21 80,49 108,84 27,36 47,77 60,124 12,47 18,97 18,150zm-166 3c0,-35 -2,-70 -7,-103 -5,-34 -14,-64 -27,-90 -14,-25 -32,-46 -56,-63 -23,-16 -53,-24 -91,-24 -37,0 -68,8 -92,24 -25,16 -44,36 -58,62 -14,26 -24,56 -30,90 -5,33 -8,68 -8,105 0,87 14,154 43,201 29,47 77,70 145,70 32,0 60,-7 82,-21 23,-13 42,-32 56,-56 15,-25 26,-53 33,-86 7,-34 10,-70 10,-109z"/>
   <polygon id="_1" class="fil0" points="1960,4888 1897,4888 1897,4784 2176,4784 2176,4888 2113,4888 2113,5434 2349,5434 2349,4888 2285,4888 2285,4784 2577,4784 2577,4888 2501,4888 2501,5434 2577,5434 2577,5536 1497,5536 1497,5434 1573,5434 1573,4888 1497,4888 1497,4784 1792,4784 1792,4888 1725,4888 1725,5434 1960,5434 "/>
   <path id="_2" class="fil0" d="M2844 5158c0,45 4,84 12,116 7,33 20,61 37,83 18,21 41,38 70,48 29,11 64,16 105,16 9,0 21,0 35,-1 14,-1 29,-2 45,-4 16,-2 33,-4 50,-7 16,-3 32,-7 46,-11l24 110c-16,5 -33,11 -52,16 -20,5 -40,9 -60,13 -21,3 -42,5 -63,7 -22,2 -42,3 -61,3 -68,0 -125,-10 -171,-30 -46,-20 -82,-48 -109,-82 -27,-35 -46,-76 -57,-122 -11,-47 -16,-97 -16,-151 0,-44 5,-89 15,-136 10,-47 29,-89 56,-127 27,-38 64,-69 112,-94 47,-24 108,-36 181,-36 40,0 77,2 110,8 33,5 63,13 91,22l0 212 -111 0 0 -113c-15,-4 -29,-6 -44,-8 -15,-1 -29,-2 -42,-2 -37,0 -68,6 -94,19 -26,13 -47,31 -63,55 -16,24 -28,52 -35,85 -7,33 -11,70 -11,111z"/>
   <path id="_3" class="fil0" d="M3584 5432l72 0 0 104 -303 0 0 -104 75 0 0 -546 -75 0 0 -102 303 0 0 102 -72 0 0 546zm386 -7l101 10 0 88c-18,7 -38,13 -60,16 -23,4 -41,6 -55,6 -27,1 -50,-2 -67,-9 -18,-8 -34,-23 -49,-44l-222 -320 0 -48 204 -290c14,-23 30,-39 46,-48 17,-9 36,-13 58,-12 41,0 80,9 117,28l-9 87 -95 9 -179 238 210 289z"/>
   <path id="_4" class="fil0" d="M4619 4785l313 0 0 102 -79 0 0 547 79 0 0 102 -305 0 0 -102 74 0 0 -383 -2 0c-55,59 -109,118 -163,176 -53,58 -108,116 -162,173l0 34 73 0 0 102 -308 0 0 -102 80 0 0 -547 -77 0 0 -102 306 0 0 102 -74 0 0 378 2 0 325 -349 0 -29 -82 0 0 -102z"/>
   <path id="_5" class="fil0" d="M5499 4785l313 0 0 102 -78 0 0 547 78 0 0 102 -305 0 0 -102 74 0 0 -383 -2 0c-55,59 -109,118 -162,176 -54,58 -108,116 -163,173l0 34 73 0 0 102 -307 0 0 -102 80 0 0 -547 -78 0 0 -102 306 0 0 102 -74 0 0 378 2 0 325 -349 0 -29 -82 0 0 -102zm-86 -71c-21,0 -42,-4 -61,-12 -18,-7 -36,-18 -53,-30 -16,-13 -32,-28 -46,-45 -15,-17 -28,-35 -41,-54l64 -50c23,33 47,57 73,73 25,16 47,24 67,24 7,0 15,-1 25,-1 9,-1 21,-4 35,-10 13,-5 29,-14 46,-27 18,-12 38,-29 60,-51l43 42c-35,53 -71,90 -108,110 -37,21 -71,31 -104,31z"/>
   <polygon id="_6" class="fil0" points="6228,5536 6228,5432 6305,5432 6305,4886 6230,4886 6230,4784 6842,4784 6842,5001 6731,5001 6731,4886 6462,4886 6462,5432 6565,5432 6565,5536 "/>
   <path id="_7" class="fil0" d="M7582 5159c0,56 -8,107 -22,154 -15,47 -37,88 -66,123 -29,35 -65,62 -108,81 -43,20 -94,30 -151,30 -62,0 -115,-9 -159,-28 -45,-19 -81,-45 -110,-79 -29,-34 -50,-74 -64,-121 -14,-47 -21,-100 -21,-157 0,-54 7,-105 20,-153 14,-47 35,-89 63,-124 29,-36 65,-64 110,-85 44,-20 98,-30 161,-30 62,0 116,10 160,31 44,21 80,49 108,84 28,36 48,77 60,124 13,47 19,97 19,150zm-167 3c0,-35 -2,-70 -7,-103 -5,-34 -14,-64 -27,-90 -14,-25 -32,-46 -55,-63 -24,-16 -54,-24 -91,-24 -38,0 -68,8 -93,24 -24,16 -44,36 -58,62 -14,26 -24,56 -29,90 -6,33 -9,68 -9,105 0,87 15,154 44,201 28,47 77,70 145,70 32,0 59,-7 82,-21 22,-13 41,-32 56,-56 14,-25 25,-53 32,-86 7,-34 10,-70 10,-109z"/>
   <path id="_8" class="fil0" d="M7857 5158c0,45 3,84 11,116 8,33 20,61 38,83 17,21 41,38 69,48 29,11 64,16 106,16 9,0 20,0 35,-1 14,-1 29,-2 45,-4 16,-2 32,-4 49,-7 17,-3 32,-7 46,-11l24 110c-15,5 -32,11 -52,16 -19,5 -39,9 -60,13 -21,3 -42,5 -63,7 -21,2 -41,3 -60,3 -69,0 -126,-10 -171,-30 -46,-20 -82,-48 -109,-82 -27,-35 -46,-76 -57,-122 -11,-47 -17,-97 -17,-151 0,-44 5,-89 16,-136 10,-47 28,-89 55,-127 27,-38 65,-69 112,-94 48,-24 108,-36 182,-36 40,0 76,2 109,8 33,5 63,13 91,22l0 212 -110 0 0 -113c-15,-4 -30,-6 -45,-8 -15,-1 -29,-2 -42,-2 -36,0 -68,6 -93,19 -26,13 -47,31 -63,55 -16,24 -28,52 -35,85 -8,33 -11,70 -11,111z"/>
   <path id="_9" class="fil0" d="M8607 4783l0 104 -65 0 85 202 62 158 5 0 59 -160 78 -200 -68 0 0 -104 271 0 0 104 -56 0 -224 543c-18,44 -40,75 -65,93 -26,18 -58,27 -98,27 -17,0 -37,-1 -62,-4 -24,-2 -54,-9 -89,-19l24 -102c21,5 38,8 52,10 14,2 26,3 37,3 15,0 28,-4 39,-13 11,-8 21,-21 29,-41l17 -44 -42 0 -208 -453 -56 0 0 -104 275 0z"/>
   <path id="_10" class="fil0" d="M9089 5536l0 194 -117 0 0 -294 64 -3c28,-27 50,-58 67,-93 17,-35 31,-74 41,-116 10,-42 16,-88 20,-136 4,-49 5,-100 5,-154l0 -48 -83 0 0 -102 653 0 0 102 -76 0 0 547 78 3 0 294 -116 0 0 -194 -536 0zm217 -592c0,114 -7,212 -23,292 -15,80 -44,146 -85,197l309 0 0 -547 -201 0 0 58z"/>
   <path id="_11" class="fil0" d="M10363 5432l-33 -104 -268 0c-5,14 -10,30 -17,50 -6,19 -12,37 -16,54l71 0 0 104 -280 0 0 -104 60 0 228 -648 194 0 220 648 60 0 0 104 -288 0 0 -104 69 0zm-146 -466c-2,-10 -5,-19 -7,-28 -3,-9 -6,-19 -9,-29l-3 0 -18 58c-6,18 -12,38 -20,61 -7,23 -14,46 -22,69 -8,23 -15,46 -23,69 -7,23 -13,43 -19,61l203 0 -82 -261z"/>
   <path id="_12" class="fil0" d="M11266 5012c0,27 -4,54 -13,82 -9,27 -23,52 -43,75 -19,22 -45,40 -75,54 -31,15 -68,22 -112,22l-142 0 0 187 97 0 0 104 -327 0 0 -104 73 0 0 -545 -73 0 0 -104 358 0c85,0 149,20 193,62 43,41 64,97 64,167zm-385 -125l0 256 103 0c16,0 31,-2 46,-7 14,-5 27,-12 37,-23 11,-10 19,-23 26,-39 6,-15 9,-35 9,-57 0,-45 -11,-78 -32,-99 -21,-21 -51,-31 -91,-31l-98 0z"/>
   <path id="_13" class="fil0" d="M11517 5158c0,45 4,84 11,116 8,33 21,61 38,83 18,21 41,38 70,48 29,11 64,16 105,16 9,0 21,0 35,-1 14,-1 29,-2 45,-4 16,-2 33,-4 50,-7 16,-3 32,-7 46,-11l24 110c-16,5 -33,11 -52,16 -20,5 -40,9 -61,13 -20,3 -41,5 -63,7 -21,2 -41,3 -60,3 -68,0 -126,-10 -171,-30 -46,-20 -82,-48 -109,-82 -27,-35 -46,-76 -57,-122 -11,-47 -16,-97 -16,-151 0,-44 5,-89 15,-136 10,-47 29,-89 56,-127 27,-38 64,-69 111,-94 48,-24 108,-36 182,-36 40,0 77,2 110,8 33,5 63,13 91,22l0 212 -111 0 0 -113c-15,-4 -29,-6 -44,-8 -15,-1 -29,-2 -43,-2 -36,0 -67,6 -93,19 -26,13 -47,31 -63,55 -16,24 -28,52 -35,85 -7,33 -11,70 -11,111z"/>
   <polygon id="_14" class="fil0" points="12157,5536 12157,5432 12247,5432 12247,4887 12106,4887 12107,5011 11996,5011 11996,4783 12652,4783 12652,5011 12542,5011 12542,4887 12403,4887 12403,5432 12491,5432 12491,5536 "/>
   <path id="_15" class="fil0" d="M13255 5142c23,8 42,19 58,33 15,15 27,30 36,46 9,17 16,34 19,52 4,18 6,35 6,51 0,32 -6,61 -18,87 -12,27 -29,49 -50,68 -21,18 -46,32 -76,42 -29,10 -61,15 -95,15l-421 0 0 -104 78 0 0 -544 -75 0 0 -104 385 0c84,0 147,18 188,53 40,35 61,84 61,146 0,10 -1,22 -4,36 -2,14 -7,29 -14,44 -7,14 -17,29 -29,43 -13,14 -29,25 -49,35l0 1zm-305 57l0 233 138 0c43,0 74,-11 94,-34 19,-23 29,-51 29,-83 0,-31 -10,-58 -30,-81 -20,-23 -51,-35 -93,-35l-138 0zm0 -311l0 211 124 0c37,0 66,-9 86,-29 21,-19 31,-45 31,-76 0,-31 -9,-57 -28,-77 -19,-19 -48,-29 -89,-29l-124 0z"/>
   <polygon id="_16" class="fil0" points="13467,5536 13467,5432 13543,5432 13543,4888 13468,4888 13468,4784 14081,4784 14081,5005 13971,5005 13971,4888 13700,4888 13700,5098 13952,5092 13952,5200 13700,5193 13700,5432 13984,5432 13984,5308 14095,5308 14095,5536 "/>
   <polygon id="_17" class="fil0" points="14643,5536 14643,5432 14711,5432 14711,5194 14410,5194 14410,5432 14479,5432 14479,5536 14176,5536 14176,5432 14253,5432 14253,4888 14176,4888 14176,4784 14479,4784 14479,4888 14410,4888 14410,5096 14711,5096 14711,4888 14643,4888 14643,4784 14944,4784 14944,4888 14868,4888 14868,5432 14944,5432 14944,5536 "/>
   <polygon id="_18" class="fil0" points="15504,5536 15504,5432 15571,5432 15571,5194 15270,5194 15270,5432 15339,5432 15339,5536 15037,5536 15037,5432 15114,5432 15114,4888 15037,4888 15037,4784 15339,4784 15339,4888 15270,4888 15270,5096 15571,5096 15571,4888 15504,4888 15504,4784 15805,4784 15805,4888 15729,4888 15729,5432 15805,5432 15805,5536 "/>
   <path id="_19" class="fil0" d="M16133 5180l0 252 140 0c35,0 64,-11 87,-32 23,-22 35,-53 35,-94 0,-22 -4,-40 -11,-56 -7,-15 -16,-28 -28,-39 -12,-10 -26,-18 -41,-23 -15,-5 -32,-8 -49,-8l-133 0zm79 -293l-79 0 0 191 154 0c39,0 75,5 108,15 34,10 62,24 86,43 24,19 43,43 57,72 14,29 21,62 21,100 0,39 -6,73 -19,102 -12,28 -29,52 -51,71 -22,18 -48,32 -78,41 -31,10 -64,14 -101,14l-411 0 0 -104 78 0 0 -545 -78 0 0 -104 313 0 0 104zm394 649l0 -104 75 0 0 -545 -75 0 0 -103 306 0 0 103 -75 0 0 545 75 0 0 104 -306 0z"/>
   <path id="_20" class="fil0" d="M17484 4785l313 0 0 102 -78 0 0 547 78 0 0 102 -305 0 0 -102 74 0 0 -383 -2 0c-55,59 -109,118 -162,176 -54,58 -108,116 -163,173l0 34 73 0 0 102 -307 0 0 -102 80 0 0 -547 -78 0 0 -102 306 0 0 102 -74 0 0 378 2 0 325 -349 0 -29 -82 0 0 -102zm-86 -71c-21,0 -42,-4 -61,-12 -18,-7 -36,-18 -53,-30 -16,-13 -32,-28 -46,-45 -15,-17 -28,-35 -41,-54l64 -50c23,33 47,57 73,73 25,16 47,24 67,24 7,0 15,-1 25,-1 9,-1 21,-4 35,-10 13,-5 29,-14 46,-27 18,-12 38,-29 60,-51l43 42c-35,53 -71,90 -108,110 -37,21 -71,31 -104,31z"/>
   <path id="_21" class="fil0" d="M5389 6149l0 104 -64 0 85 203 61 157 6 0 59 -159 78 -201 -68 0 0 -104 270 0 0 104 -56 0 -223 543c-18,44 -40,75 -66,93 -25,19 -58,28 -97,28 -17,0 -38,-2 -62,-4 -24,-3 -54,-9 -89,-19l24 -102c20,4 37,7 51,9 14,2 27,3 38,3 15,0 28,-4 39,-12 11,-8 20,-22 28,-41l18 -44 -43 0 -208 -454 -56 0 0 -104 275 0z"/>
   <polygon id="_22" class="fil0" points="6344,6903 6344,6799 6412,6799 6412,6561 6111,6561 6111,6799 6180,6799 6180,6903 5878,6903 5878,6799 5954,6799 5954,6254 5878,6254 5878,6150 6180,6150 6180,6254 6111,6254 6111,6462 6412,6462 6412,6254 6344,6254 6344,6150 6645,6150 6645,6254 6569,6254 6569,6799 6645,6799 6645,6903 "/>
   <path id="_23" class="fil0" d="M7215 6151l314 0 0 102 -79 0 0 548 79 0 0 102 -306 0 0 -102 75 0 0 -384 -3 0c-54,60 -109,118 -162,176 -54,58 -108,116 -163,174l0 34 74 0 0 102 -308 0 0 -102 80 0 0 -548 -78 0 0 -102 307 0 0 102 -75 0 0 378 2 0 326 -348 0 -30 -83 0 0 -102z"/>
   <path id="_24" class="fil0" d="M8158 6508c24,8 43,20 58,34 16,14 28,29 37,46 9,16 15,33 19,51 4,18 6,35 6,51 0,32 -6,61 -18,88 -13,26 -29,48 -50,67 -21,19 -47,33 -76,43 -29,10 -61,15 -95,15l-422 0 0 -104 79 0 0 -545 -75 0 0 -104 385 0c84,0 146,18 187,53 41,36 62,85 62,147 0,10 -2,22 -4,36 -3,14 -8,28 -14,43 -7,15 -17,29 -30,43 -12,14 -28,26 -49,35l0 1zm-304 57l0 234 138 0c43,0 74,-12 93,-35 20,-23 29,-50 29,-82 0,-31 -10,-58 -30,-82 -20,-23 -51,-35 -92,-35l-138 0zm0 -311l0 212 124 0c37,0 66,-10 86,-29 21,-20 31,-45 31,-76 0,-32 -10,-57 -28,-77 -19,-20 -49,-30 -89,-30l-124 0z"/>
   <polygon id="_25" class="fil0" points="8371,6903 8371,6799 8446,6799 8446,6254 8372,6254 8372,6150 8985,6150 8985,6371 8874,6371 8874,6254 8604,6254 8604,6465 8856,6458 8856,6566 8604,6560 8604,6799 8887,6799 8887,6675 8999,6675 8999,6903 "/>
   <path id="_26" class="fil0" d="M9697 6378c0,27 -5,54 -14,82 -8,28 -23,53 -42,75 -20,22 -45,41 -76,55 -30,14 -68,21 -111,21l-143 0 0 188 98 0 0 104 -328 0 0 -104 74 0 0 -546 -74 0 0 -104 358 0c86,0 150,21 193,62 43,41 65,97 65,167zm-386 -125l0 256 103 0c16,0 31,-2 46,-7 15,-4 27,-12 38,-22 10,-11 19,-23 25,-39 6,-16 9,-35 9,-58 0,-45 -10,-78 -31,-98 -22,-21 -52,-32 -91,-32l-99 0z"/>
   <path id="_27" class="fil0" d="M9947 6525c0,44 4,83 12,116 7,33 20,60 38,82 17,22 40,38 69,49 29,10 64,16 106,16 9,0 20,-1 34,-2 15,0 30,-2 46,-3 16,-2 32,-5 49,-7 17,-3 32,-7 46,-11l24 109c-15,6 -33,11 -52,16 -19,6 -39,10 -60,13 -21,3 -42,6 -63,8 -21,2 -41,2 -60,2 -69,0 -126,-10 -172,-30 -45,-20 -82,-47 -109,-82 -27,-34 -46,-75 -57,-122 -11,-47 -16,-97 -16,-151 0,-44 5,-89 15,-136 11,-46 29,-89 56,-127 27,-38 64,-69 112,-93 47,-25 108,-37 182,-37 40,0 76,3 109,8 33,6 63,13 91,23l0 211 -111 0 0 -113c-14,-3 -29,-6 -44,-7 -15,-2 -29,-3 -42,-3 -37,0 -68,7 -94,20 -26,12 -47,31 -63,54 -16,24 -27,52 -35,86 -7,33 -11,70 -11,111z"/>
   <path id="_28" class="fil0" d="M10933 6151l313 0 0 102 -79 0 0 548 79 0 0 102 -306 0 0 -102 75 0 0 -384 -2 0c-55,60 -109,118 -163,176 -54,58 -108,116 -163,174l0 34 74 0 0 102 -308 0 0 -102 80 0 0 -548 -78 0 0 -102 307 0 0 102 -75 0 0 378 3 0 325 -348 0 -30 -82 0 0 -102z"/>
   <polygon id="_29" class="fil0" points="11468,6903 11468,6799 11558,6799 11558,6253 11417,6253 11418,6377 11307,6377 11307,6149 11963,6149 11963,6377 11852,6377 11852,6253 11713,6253 11713,6799 11802,6799 11802,6903 "/>
   <polygon id="_30" class="fil0" points="12027,6903 12027,6799 12102,6799 12102,6254 12028,6254 12028,6150 12641,6150 12641,6371 12530,6371 12530,6254 12260,6254 12260,6465 12512,6458 12512,6566 12260,6560 12260,6799 12543,6799 12543,6675 12655,6675 12655,6903 "/>
   <polygon id="_31" class="fil0" points="12869,6903 12869,6799 12958,6799 12958,6253 12817,6253 12818,6377 12708,6377 12708,6149 13363,6149 13363,6377 13253,6377 13253,6253 13114,6253 13114,6799 13203,6799 13203,6903 "/>
  </g>
  <g id="_2050463451472">
   <g>
    <path class="fil1" d="M7837 1884l680 -280 739 -305 739 305 680 280 0 90 0 143 143 0 1795 0 0 -143 1278 0 0 2187 -9270 0 0 -2187 1278 0 0 143 1795 0 143 0 0 -143 0 -90zm-3074 216l1004 0 0 143 -1004 0 0 -143zm0 1650l143 0 0 -1382 -143 0 0 1382zm862 0l142 0 0 -1382 -142 0 0 1382zm-287 0l142 0 0 -1382 -142 0 0 1382zm-287 0l142 0 0 -1382 -142 0 0 1382zm848 -1382l143 0 0 319 -143 0 0 -319zm1927 0l142 0 0 319 -142 0 0 -319zm-1651 0l142 0 0 319 -142 0 0 -319zm275 0l142 0 0 319 -142 0 0 -319zm275 0l143 0 0 319 -143 0 0 -319zm275 0l143 0 0 319 -143 0 0 -319zm275 0l143 0 0 319 -143 0 0 -319zm276 0l142 0 0 319 -142 0 0 -319zm-1652 1063l143 0 0 319 -143 0 0 -319zm1927 0l142 0 0 319 -142 0 0 -319zm-1651 0l142 0 0 319 -142 0 0 -319zm275 0l142 0 0 319 -142 0 0 -319zm275 0l143 0 0 319 -143 0 0 -319zm275 0l143 0 0 319 -143 0 0 -319zm275 0l143 0 0 319 -143 0 0 -319zm276 0l142 0 0 319 -142 0 0 -319zm-1652 -532l143 0 0 320 -143 0 0 -320zm1927 0l142 0 0 320 -142 0 0 -320zm-1651 0l142 0 0 320 -142 0 0 -320zm275 0l142 0 0 320 -142 0 0 -320zm275 0l143 0 0 320 -143 0 0 -320zm275 0l143 0 0 320 -143 0 0 -320zm275 0l143 0 0 320 -143 0 0 -320zm276 0l142 0 0 320 -142 0 0 -320zm606 851l142 0 0 -1445 -142 0 0 1445zm881 0l142 0 0 -1445 -142 0 0 1445zm-294 0l143 0 0 -1445 -143 0 0 1445zm-294 0l143 0 0 -1445 -143 0 0 1445zm882 0l142 0 0 -1445 -142 0 0 1445zm881 0l142 0 0 -1445 -142 0 0 1445zm-294 0l142 0 0 -1445 -142 0 0 1445zm-294 0l143 0 0 -1445 -143 0 0 1445zm919 -1382l142 0 0 319 -142 0 0 -319zm1926 0l143 0 0 319 -143 0 0 -319zm-1651 0l142 0 0 319 -142 0 0 -319zm275 0l143 0 0 319 -143 0 0 -319zm275 0l143 0 0 319 -143 0 0 -319zm275 0l143 0 0 319 -143 0 0 -319zm276 0l142 0 0 319 -142 0 0 -319zm275 0l142 0 0 319 -142 0 0 -319zm-1651 1063l142 0 0 319 -142 0 0 -319zm1926 0l143 0 0 319 -143 0 0 -319zm-1651 0l142 0 0 319 -142 0 0 -319zm275 0l143 0 0 319 -143 0 0 -319zm275 0l143 0 0 319 -143 0 0 -319zm275 0l143 0 0 319 -143 0 0 -319zm276 0l142 0 0 319 -142 0 0 -319zm275 0l142 0 0 319 -142 0 0 -319zm-1651 -532l142 0 0 320 -142 0 0 -320zm1926 0l143 0 0 320 -143 0 0 -320zm-1651 0l142 0 0 320 -142 0 0 -320zm275 0l143 0 0 320 -143 0 0 -320zm275 0l143 0 0 320 -143 0 0 -320zm275 0l143 0 0 320 -143 0 0 -320zm276 0l142 0 0 320 -142 0 0 -320zm275 0l142 0 0 320 -142 0 0 -320zm550 -799l1004 0 0 143 -1004 0 0 -143zm0 1650l142 0 0 -1382 -142 0 0 1382zm861 0l143 0 0 -1382 -143 0 0 1382zm-287 0l142 0 0 -1382 -142 0 0 1382zm-287 0l142 0 0 -1382 -142 0 0 1382zm-8269 126l8986 0 0 143 -8986 0 0 -143zm4493 -2405l1194 525 0 183 -2386 0 0 -183 1192 -525zm807 525l-807 -381 -806 381 1613 0z"/>
    <polygon class="fil1" points="10675,4378 7837,4378 7968,4253 10544,4253 "/>
   </g>
   <path class="fil1" d="M6790 1974c52,-18 99,-40 166,-116 3,-3 396,-112 407,-257 73,-12 480,-398 489,-527 10,-146 275,142 473,-433 9,-28 116,-60 135,-41 76,80 236,174 348,54 99,-107 103,164 295,-66 142,-169 247,352 442,-71 7,-15 207,-21 227,6 66,91 242,266 328,450 78,171 507,667 670,620 26,-8 72,-38 107,-76 14,-16 119,-8 129,9 20,35 71,60 113,123 56,83 321,-127 436,145 22,55 587,23 794,180l-1531 0 0 -178 -1562 -643 -1562 643 0 178 -904 0zm1047 -90l680 -280 739 -305 0 0 -739 305 -680 280 0 90 0 0 0 -90z"/>
  </g>
 </g>
</svg>
